<?xml version="1.0" encoding="iso-8859-1"?>
<!-- Generator: Adobe Illustrator 16.0.0, SVG Export Plug-In . SVG Version: 6.00 Build 0)  -->
<!DOCTYPE svg PUBLIC "-//W3C//DTD SVG 1.1//EN" "http://www.w3.org/Graphics/SVG/1.1/DTD/svg11.dtd">
<svg xmlns="http://www.w3.org/2000/svg" xmlns:xlink="http://www.w3.org/1999/xlink" version="1.1" id="Capa_1" x="0px" y="0px" width="512px" height="512px" viewBox="0 0 31.771 31.771" style="enable-background:new 0 0 31.771 31.771;" xml:space="preserve">
<g>
	<path d="M2.326,0L1.833,1.91l4.188,1.082L4.752,7.898c-1.806,1.964-2.919,4.575-2.919,7.449c0,5.772,4.456,10.52,10.109,10.99   v2.772H8.978v1.064H7.023v1.598h11.654v-1.598h-1.923v-1.064h-2.615v-5.166c2.442-0.166,4.615-1.334,6.094-3.106   c0.148-0.176,0.287-0.358,0.42-0.546c1.007-1.421,1.601-3.152,1.601-5.023c0-0.4-0.032-0.793-0.085-1.179l0.914-0.046l1.609-6.224   l2.037,0.526l-1.142,4.413l-1.019-0.262l-0.965,3.734l3.168,0.818l0.967-3.735l-0.68-0.176L28.2,8.724l1.244,0.322l0.494-1.91   L2.326,0z M13.899,14.503l4.045-0.202c0.021,0.293,0.031,0.591,0.033,0.894h-4.079V14.503z M13.899,15.909h4.064   c-0.044,0.991-0.188,1.931-0.413,2.786c-1.103-0.338-2.339-0.541-3.651-0.571V15.909z M9.106,19.577   c0.462,1.375,1.14,2.516,1.952,3.291c-1.43-0.47-2.681-1.334-3.631-2.462C7.914,20.09,8.479,19.811,9.106,19.577z M7.006,19.861   c-0.801-1.137-1.316-2.487-1.435-3.952h2.876c0.045,1.063,0.207,2.073,0.458,3C8.196,19.173,7.558,19.493,7.006,19.861z    M8.848,11.869c-0.258,1.026-0.409,2.145-0.415,3.325H5.547c0.016-1.653,0.542-3.182,1.418-4.451L8.848,11.869z M13.014,24.986   c-0.049,0.002-0.097,0.007-0.147,0.007c-5.319,0-9.646-4.328-9.646-9.646c0-2.14,0.709-4.11,1.892-5.712l1.234,0.738   c-0.953,1.396-1.517,3.08-1.517,4.895c0,1.871,0.595,3.603,1.601,5.023c0.134,0.188,0.273,0.37,0.419,0.546   c1.493,1.791,3.694,2.963,6.165,3.113L13.014,24.986L13.014,24.986z M13.185,23.232c-1.452-0.225-2.702-1.726-3.413-3.877   c1.026-0.305,2.184-0.486,3.413-0.518V23.232z M13.185,18.124c-1.297,0.03-2.52,0.229-3.612,0.562   c-0.224-0.854-0.368-1.791-0.411-2.775h4.023V18.124z M13.185,15.194H9.146c0.006-1.043,0.13-2.031,0.338-2.943l3.7,2.213   L13.185,15.194L13.185,15.194z M13.899,23.239v-4.4c1.244,0.03,2.416,0.22,3.45,0.527C16.633,21.532,15.366,23.036,13.899,23.239z    M16.088,22.848c0.804-0.772,1.468-1.9,1.927-3.258c0.612,0.229,1.164,0.505,1.643,0.816   C18.722,21.518,17.493,22.373,16.088,22.848z M20.076,19.861c-0.54-0.36-1.166-0.678-1.858-0.938   c0.254-0.929,0.416-1.944,0.463-3.014h2.832C21.394,17.374,20.879,18.727,20.076,19.861z M18.692,15.194   c-0.002-0.314-0.012-0.625-0.033-0.93l2.785-0.14c0.051,0.351,0.09,0.705,0.093,1.069L18.692,15.194L18.692,15.194z" fill="#006DF0"/>
</g>
<g>
</g>
<g>
</g>
<g>
</g>
<g>
</g>
<g>
</g>
<g>
</g>
<g>
</g>
<g>
</g>
<g>
</g>
<g>
</g>
<g>
</g>
<g>
</g>
<g>
</g>
<g>
</g>
<g>
</g>
</svg>
